<?xml version="1.0" standalone="no"?><!DOCTYPE svg PUBLIC "-//W3C//DTD SVG 1.1//EN" "http://www.w3.org/Graphics/SVG/1.1/DTD/svg11.dtd"><svg t="1631784076508" class="icon" viewBox="0 0 1024 1024" version="1.1" xmlns="http://www.w3.org/2000/svg" p-id="7005" xmlns:xlink="http://www.w3.org/1999/xlink" width="200" height="200"><defs><style type="text/css"></style></defs><path d="M158.422345 0h335.209673l50.510951 73.469928H107.910395L158.422345 0zM443.121067 730.116287l4.591996 50.509951h55.102946v55.103946h-45.919955l-8.861992-53.128948L470.67304 1023.999H916.089605V730.116287z m59.694942 202.043803h-36.734964l-9.183991-55.102947h45.919955z m91.83891 0h-50.51195v-55.102947h50.51195z m0-96.429906h-50.51195v-55.102946h50.51195z m91.837911 96.429906h-50.509951v-55.102947h50.509951z m0-96.429906h-50.509951v-55.102946h50.509951z m91.83891 96.429906H727.819789v-55.102947h50.509951z m0-96.429906H727.819789v-55.102946h50.509951z m91.83791 96.429906h-50.50995v-55.102947h50.50995z m0-96.429906h-50.50995v-55.102946h50.50995z" fill="#097DCC" p-id="7006"></path><path d="M498.224013 220.412785l45.919956-146.941857H107.910395l45.919955 146.941857h-32.143969l-13.775986 9.182991v50.51195l13.775986 9.182991h18.367982v105.614897a61.25594 61.25594 0 0 0 32.142969 41.32696 400.874609 400.874609 0 0 0 59.694942 22.959978L181.382323 1023.999h289.289717l-26.264974-293.882713-24.245976-270.923735s50.097951-14.418986 64.286937-22.959978A60.750941 60.750941 0 0 0 512 399.49761V289.289717h22.959978l9.182991-9.182991v-50.51195l-9.182991-9.182991z m-330.618677-36.735964L135.462368 82.654919h105.613897l22.959977 101.021902z m119.389884 0l-22.959978-101.021902H392.610117l-18.367982 101.021902z m202.044802 0h-96.429905l18.367982-101.021902h105.613897z" fill="#097DCC" p-id="7007"></path></svg>