<?xml version="1.0" standalone="no"?><!DOCTYPE svg PUBLIC "-//W3C//DTD SVG 1.1//EN" "http://www.w3.org/Graphics/SVG/1.1/DTD/svg11.dtd"><svg t="1632723155497" class="icon" viewBox="0 0 1024 1024" version="1.1" xmlns="http://www.w3.org/2000/svg" p-id="27145" xmlns:xlink="http://www.w3.org/1999/xlink" width="200" height="200"><defs><style type="text/css"></style></defs><path d="M937.50464 716.352l8.48-400.576A99.36 99.36 0 0 0 1024.00064 218.24c0-55.04-44.064-99.584-98.56-99.584a98.496 98.496 0 0 0-91.104 61.696L218.81664 91.616C209.60064 39.552 164.48064 0 110.33664 0 49.37664 0 0.00064 49.92 0.00064 111.488 0.00064 160.64 31.55264 202.496 75.32864 217.216l12.352 566.4A122.432 122.432 0 0 0 0.00064 901.376C0.00064 969.12 54.33664 1024 121.31264 1024c54.944 0 101.248-36.864 116.256-87.392l587.392-72.064a96.864 96.864 0 0 0 79.968 42.432c53.568 0 97.056-43.936 97.056-98.08a97.6 97.6 0 0 0-64.48-92.544z m-129.504 89.504l-110.88 13.568-10.72-255.008 194.56 10.848-2.976 139.424a97.824 97.824 0 0 0-69.984 91.2z m-660.64-24.32l-5.344-247.36 241.92 13.408 9.952 308.992-153.76 18.784a122.08 122.08 0 0 0-92.768-93.856zM213.31264 151.456l158.4 22.88 10.56 324.928-241.28-13.408-5.824-265.92a110.816 110.816 0 0 0 78.144-68.48z m673.44 158.24l-4.608 217.248-197.696-11.008L672.00064 217.536l157.632 22.72a99.104 99.104 0 0 0 57.152 69.472z m-250.24 203.712l-206.624-11.456-10.4-320.704 204.384 29.472 12.64 302.688z m-204.96 36.864l207.04 11.424 11.04 263.552-208.256 25.6-9.824-300.576z m0 0" p-id="27146"></path></svg>